<svg version="1.0" xmlns="http://www.w3.org/2000/svg"
 width="1076.000000pt" height="1345.000000pt" viewBox="0 0 1076.000000 1345.000000"
 preserveAspectRatio="xMidYMid meet">

<g transform="translate(0.000000,1345.000000) scale(0.100000,-0.100000)"
fill="#222222" stroke="none">
<path d="M6994 13288 c-113 -80 -279 -244 -328 -325 -145 -242 -132 -544 32
-725 l35 -39 -36 -52 c-20 -29 -73 -93 -116 -144 -95 -109 -154 -198 -217
-323 -38 -77 -48 -90 -59 -79 -7 8 -58 68 -114 134 -55 66 -168 189 -249 274
l-149 154 -25 -84 c-14 -46 -45 -149 -68 -229 -68 -233 -140 -473 -143 -477
-2 -2 -73 -7 -158 -13 -580 -37 -1263 -189 -1658 -369 -500 -228 -1052 -657
-1360 -1056 -30 -40 -93 -156 -102 -190 -15 -52 -5 -168 22 -265 30 -107 104
-317 144 -409 19 -44 35 -81 35 -84 0 -20 231 -487 350 -707 46 -85 83 -162
83 -171 -2 -17 -50 -196 -105 -389 -16 -58 -40 -143 -53 -190 -13 -47 -46
-161 -73 -255 -99 -332 -137 -504 -202 -915 -21 -130 -70 -494 -67 -496 1 -1
125 -9 276 -18 151 -9 276 -18 278 -20 5 -4 19 -235 33 -531 7 -132 15 -303
20 -380 4 -77 5 -143 2 -147 -4 -3 -52 -16 -107 -28 -55 -11 -163 -34 -240
-51 -274 -59 -585 -141 -970 -258 -71 -21 -184 -55 -250 -75 -66 -20 -160 -49
-210 -65 -49 -16 -119 -38 -155 -49 -192 -58 -280 -86 -325 -102 -53 -19 -62
-33 -64 -98 -1 -40 -11 -44 -156 -72 -60 -11 -113 -24 -117 -28 -13 -14 -99
-712 -132 -1077 -62 -684 -44 -954 84 -1223 61 -127 104 -186 134 -179 12 3
82 30 156 61 l134 55 144 429 143 429 252 68 c139 37 308 83 377 101 69 18
159 42 200 54 41 12 131 37 200 55 69 18 224 61 345 95 121 34 265 75 320 90
119 33 396 115 665 196 167 50 367 126 405 153 141 101 358 606 577 1344 l23
78 47 -98 c72 -151 158 -335 158 -338 0 -2 17 -41 39 -87 89 -190 230 -519
251 -582 18 -57 8 -172 -35 -371 -39 -182 -144 -555 -195 -695 -17 -47 -35
-96 -40 -110 -5 -14 -25 -68 -45 -120 -20 -52 -50 -133 -66 -180 -17 -47 -55
-150 -84 -230 -93 -252 -206 -562 -237 -650 -16 -47 -59 -166 -94 -265 -36
-99 -69 -191 -74 -205 -5 -14 -20 -55 -34 -92 -14 -36 -26 -71 -26 -77 0 -8
55 -11 170 -11 94 0 170 -2 170 -4 0 -2 -8 -21 -17 -42 -22 -51 -23 -304 -1
-379 l14 -50 1299 -3 1298 -2 -5 107 c-6 111 -29 195 -64 234 -9 10 -51 32
-93 49 -162 67 -386 161 -531 225 -134 59 -445 197 -447 199 -1 0 7 21 17 46
11 25 40 99 65 165 26 66 84 215 130 330 46 116 109 278 141 360 31 83 72 188
90 235 307 794 533 1423 601 1670 23 87 25 101 15 165 -13 83 -36 160 -104
350 -50 141 -195 504 -248 625 -16 36 -65 148 -108 250 -44 102 -133 304 -197
450 -152 342 -219 504 -233 561 -28 112 -61 766 -62 1223 l0 159 51 -104 c125
-256 278 -447 430 -536 130 -77 474 -142 1039 -198 452 -44 1114 -90 1215 -83
l50 3 7 65 c11 108 38 303 43 308 2 2 52 -12 112 -32 147 -48 336 -96 383 -96
30 0 49 9 93 45 48 38 166 176 232 269 11 15 34 47 51 70 61 81 123 184 133
222 31 111 -8 233 -123 389 -7 9 0 24 20 49 29 35 29 35 94 30 220 -18 513
166 692 436 207 313 253 667 110 855 -213 280 -716 98 -986 -357 -151 -256
-196 -560 -111 -746 l24 -53 -22 -35 c-24 -39 -9 -38 -172 -14 -50 8 -125 10
-199 6 -132 -7 -127 -5 -261 -107 -90 -68 -148 -112 -179 -134 -15 -11 -67
-49 -115 -85 -47 -36 -91 -69 -97 -72 -16 -10 -80 7 -304 78 -375 121 -693
251 -772 317 l-27 22 15 105 c64 456 93 1051 60 1240 -24 135 -60 249 -118
365 -63 126 -77 151 -155 255 -34 47 -63 90 -63 95 -1 12 212 294 223 294 4 1
25 -14 45 -33 55 -51 157 -132 222 -176 97 -66 133 -65 199 3 46 48 189 256
228 332 14 28 27 51 28 53 2 2 51 -24 110 -58 59 -33 109 -59 110 -58 1 2 16
57 32 123 56 218 125 480 129 484 7 8 57 -33 168 -140 109 -104 225 -246 331
-405 l45 -67 0 81 c0 199 -41 429 -105 592 -108 271 -259 460 -554 689 -364
283 -790 648 -1023 878 -98 96 -121 125 -139 172 -32 86 -42 180 -36 364 3 92
4 167 2 167 -1 0 -42 -28 -91 -62z m751 -1818 c3 -5 75 -52 159 -105 137 -84
300 -215 286 -228 -13 -12 -276 -104 -282 -99 -7 7 -188 428 -188 437 0 9 19
5 25 -5z m2605 -2355 c63 -57 57 -249 -13 -425 -32 -82 -131 -260 -156 -280
-3 -3 -23 -26 -43 -51 -128 -160 -299 -273 -412 -274 -46 0 -52 3 -81 41 -57
74 -69 217 -30 346 49 163 165 350 299 483 91 89 171 142 260 172 53 17 151
10 176 -12z"/>
<path d="M7560 12884 c-41 -64 -76 -120 -78 -125 -2 -5 50 -35 115 -67 500
-247 822 -452 961 -612 94 -108 196 -296 237 -435 16 -56 18 -58 32 -40 8 11
60 112 116 225 155 311 220 505 221 660 0 95 -12 130 -65 174 -125 105 -476
204 -998 281 -124 18 -454 57 -465 55 0 0 -35 -53 -76 -116z"/>
</g>
</svg>
